# xmcd
#
# Track frame offsets:
#	150
#	14030
#	29408
#	43981
#	61724
#	77290
#	90888
#	109665
#	122917
#	140136
#
# Disc length: 1946 seconds
# Revision: 0
# Processed by: cddbd v1.5.2PL0 Copyright (c) Steve Scherf et al.
# Submitted via: dBpowerAMP V12.0
#
DISCID=7e07980a
DTITLE=Dillards, The - Roots and Branches [Anthem] (L)
DYEAR=1972
DGENRE=Country
TTITLE0=Redbone Hound
TTITLE1=Forget Me Not
TTITLE2=One A.M.
TTITLE3=Last Morning
TTITLE4=Get Out on the Road
TTITLE5=Big Bayou
TTITLE6=I've Been Hurt
TTITLE7=Billy Jack
TTITLE8=Sunny Day
TTITLE9=Man of Constant Sorrow
EXTD=
EXTT0=
EXTT1=
EXTT2=
EXTT3=
EXTT4=
EXTT5=
EXTT6=
EXTT7=
EXTT8=
EXTT9=
PLAYORDER=
